<?xml version="1.0" encoding="UTF-8"?>
<svg id="Vrstva_1" xmlns="http://www.w3.org/2000/svg" viewBox="0 0 801 801">
  <defs>
    <style>
      .cls-1 {
        stroke: #000;
        stroke-miterlimit: 10;
      }

      .cls-2 {
        fill-rule: evenodd;
      }
    </style>
  </defs>
  <g id="Page-1">
    <g id="Icon-Set-Filled">
      <path id="arrow-left-circle" class="cls-2" d="M575.5,425.5h-264.65l103.05,103c9.75,9.75,9.75,25.75,0,35.5-9.78,9.75-25.6,9.75-35.38,0l-141.43-141.5c-5.97-6-7.85-14.25-6.48-22-1.37-7.75.5-16,6.48-22l141.43-141.5c9.77-9.75,25.6-9.75,35.38,0,9.75,10,9.75,25.75,0,35.5l-103.05,103h264.65c13.8,0,25,11.25,25,25s-11.2,25-25,25h0ZM400.5.5C179.6.5.5,179.5.5,400.5s179.1,400,400,400,400-179,400-400S621.4.5,400.5.5h0Z"/>
    </g>
  </g>
  <rect class="cls-1" x=".5" y=".5" width="200" height="800"/>
  <rect class="cls-1" x="612.5" y=".5" width="188" height="800"/>
  <rect class="cls-1" x=".5" y=".5" width="798.63" height="91"/>
  <rect class="cls-1" x="1.87" y="709.5" width="797.27" height="91"/>
</svg>