<?xml version="1.0" encoding="UTF-8"?>
<svg id="Vrstva_1" data-name="Vrstva 1" xmlns="http://www.w3.org/2000/svg" viewBox="0 0 801 801">
  <defs>
    <style>
      .cls-1 {
        stroke: #000;
        stroke-miterlimit: 10;
      }

      .cls-2 {
        fill-rule: evenodd;
      }
    </style>
  </defs>
  <g id="Page-1">
    <g id="Icon-Set-Filled">
      <path id="arrow-right-circle" class="cls-2" d="M563.88,422.5l-141.4,141.5c-9.77,9.75-25.6,9.75-35.35,0-9.77-9.75-9.77-25.75,0-35.5l103.03-103H225.5c-13.83,0-25-11.25-25-25s11.17-25,25-25h264.65l-103.03-103c-9.77-9.75-9.77-25.5,0-35.5,9.75-9.75,25.58-9.75,35.35,0l141.4,141.5c6,6,7.88,14.25,6.5,22,1.37,7.75-.5,16-6.5,22h0ZM400.5.5C179.57.5.5,179.5.5,400.5s179.07,400,400,400,400-179,400-400S621.43.5,400.5.5h0Z"/>
    </g>
  </g>
  <rect class="cls-1" x=".5" y=".5" width="188" height="800"/>
  <rect class="cls-1" x="612.5" y=".5" width="188" height="800"/>
  <rect class="cls-1" x="149.5" y=".5" width="473" height="137"/>
  <rect class="cls-1" x="163.5" y="663.5" width="473" height="137"/>
</svg>